<svg xmlns="http://www.w3.org/2000/svg" width="250" height="250" viewBox="0 0 250 250">
  <g id="google-pay-icon" transform="translate(2046 -3905)">
    <g id="logo-large" transform="translate(-1000 -111)">
      <g id="Rectangle_1524" data-name="Rectangle 1524" transform="translate(-1046 4016)" fill="#fff" stroke="#707070" stroke-width="1">
        <rect width="250" height="250" stroke="none"/>
        <rect x="0.5" y="0.5" width="249" height="249" fill="none"/>
      </g>
    </g>
    <g id="google-pay-or-tez" transform="translate(-2036 3915)">
      <ellipse id="Ellipse_14" data-name="Ellipse 14" cx="114.999" cy="115" rx="114.999" ry="115" transform="translate(0 0)" fill="#fff"/>
      <path id="Path_2258" data-name="Path 2258" d="M550.962,239.4A118.366,118.366,0,0,1,489.3,222.222L567.823,10.6a117.971,117.971,0,0,1,39.625,13.02c56.746,30.54,77.523,100.42,46.391,156.1C633.243,216.564,593.8,239.441,550.962,239.4Z" transform="translate(-438.181 -9.397)" fill="#6e7bf2"/>
      <path id="Path_2259" data-name="Path 2259" d="M466.878,982.07a24.841,24.841,0,0,0-.6-5.87H439.3v10.661h15.839a14.023,14.023,0,0,1-5.87,9.321l-.057.352,8.527,6.608.59.057c5.416-5.007,8.549-12.376,8.549-21.129" transform="translate(-390.492 -867.733)" fill="#4285f4"/>
      <path id="Path_2260" data-name="Path 2260" d="M238.96,1095.26c7.755,0,14.272-2.555,19.029-6.96l-9.06-7.028a16.98,16.98,0,0,1-9.957,2.873,17.32,17.32,0,0,1-16.349-11.944l-.341.034-8.867,6.858-.114.318a28.64,28.64,0,0,0,25.659,15.85" transform="translate(-189.082 -953.018)" fill="#34a853"/>
      <path id="Path_2261" data-name="Path 2261" d="M198.676,926.122a17.591,17.591,0,0,1-.954-5.688,18.652,18.652,0,0,1,.931-5.688l-.011-.375-8.981-6.971-.3.136a28.666,28.666,0,0,0,0,25.8l9.31-7.21" transform="translate(-165.148 -806.566)" fill="#fbbc05"/>
      <path id="Path_2262" data-name="Path 2262" d="M238.782,780.391a15.851,15.851,0,0,1,11.1,4.28l8.107-7.914a27.626,27.626,0,0,0-19.222-7.471A28.7,28.7,0,0,0,213.1,785.125l9.287,7.21a17.388,17.388,0,0,1,16.395-11.944" transform="translate(-188.905 -683.774)" fill="#eb4335"/>
      <path id="Path_2263" data-name="Path 2263" d="M1028.376,810.672v20.88H1021.7v-51.58h17.7a16.075,16.075,0,0,1,11.467,4.462,14.844,14.844,0,0,1,.852,20.982q-.409.443-.852.852a16.032,16.032,0,0,1-11.467,4.394l-11.024.011Zm0-24.354v18.007h11.183a8.978,8.978,0,0,0,6.835-15.032l-.068-.068c-.057-.057-.114-.125-.17-.17a8.729,8.729,0,0,0-6.6-2.736Zm42.645,8.788q7.408,0,11.683,3.928t4.28,10.763v21.754H1080.6v-4.9h-.284a12.775,12.775,0,0,1-11.036,6.052,14.337,14.337,0,0,1-9.821-3.463,11.02,11.02,0,0,1-3.951-8.64,10.457,10.457,0,0,1,4.167-8.708q4.172-3.236,11.138-3.236a19.9,19.9,0,0,1,9.787,2.157v-1.521a7.5,7.5,0,0,0-2.759-5.859,9.473,9.473,0,0,0-6.438-2.407,10.256,10.256,0,0,0-8.845,4.678l-5.87-3.679q4.8-6.914,14.328-6.914Zm-8.64,25.637a5.3,5.3,0,0,0,2.2,4.326,8.167,8.167,0,0,0,5.189,1.726,10.631,10.631,0,0,0,7.5-3.1,9.656,9.656,0,0,0,3.315-7.278c-2.089-1.646-4.984-2.475-8.708-2.475a11.316,11.316,0,0,0-6.778,1.942,5.883,5.883,0,0,0-2.725,4.859Zm61.242-24.479-22.276,50.842h-6.892l8.266-17.791-14.658-33.062h7.255l10.593,25.353h.148l10.3-25.353Z" transform="translate(-910.134 -693.758)" fill="#fff"/>
    </g>
  </g>
</svg>
