<svg xmlns="http://www.w3.org/2000/svg" width="250" height="250" viewBox="0 0 250 250">
  <g id="paytm-icon" transform="translate(1766 -3905)">
    <g id="Group_16291" data-name="Group 16291" transform="translate(280)">
      <g id="logo-large" transform="translate(-1000 -111)">
        <g id="Rectangle_1524" data-name="Rectangle 1524" transform="translate(-1046 4016)" fill="#fff" stroke="#707070" stroke-width="1">
          <rect width="250" height="250" stroke="none"/>
          <rect x="0.5" y="0.5" width="249" height="249" fill="none"/>
        </g>
      </g>
    </g>
    <g id="iconfinder_paytm_1220356" transform="translate(-1771.315 3825.024)">
      <path id="Path_2264" data-name="Path 2264" d="M376.1,195.022,378,193.5c6.621-5.612,15.1-4.994,20.768,1.665.572.666.857.713,1.429.143.381-.428.81-.761,1.191-1.189,4.43-4.328,10.289-5.612,15.766-3.186,5.764,2.568,8.86,7.086,8.907,13.412.1,13.649.048,27.251.048,40.9,0,4.851-3,7.895-7.812,7.895-1.905,0-3.811-.143-5.716.048-1.953.19-2.525-.428-2.525-2.473.1-13.316.048-26.633.048-39.949V209.1c-.048-3.091-1.286-4.375-4.239-4.518a4.344,4.344,0,0,0-4.811,4.185c-.048.618,0,1.284,0,1.9v34.48c0,5.041-2.906,7.99-7.955,7.942-2.572-.048-6.049,1.141-7.526-.523-1.286-1.427-.429-4.8-.429-7.324V209.813c0-4.185-2.715-6.325-6.24-4.9-2.191.9-2.906,2.663-2.906,4.946.048,11.034,0,22.02,0,33.053v2.616c-.143,4.613-3.1,7.514-7.669,7.562-1.905.048-3.811-.143-5.716.048-2.048.19-2.667-.38-2.62-2.568.1-18.69.048-37.381.048-56.119,0-.808.048-1.569,0-2.378-.1-1.046.333-1.379,1.381-1.379,4.382.048,8.717.048,13.1,0,1.1,0,1.62.285,1.524,1.474A19.7,19.7,0,0,0,376.1,195.022Z" transform="translate(-180.808 -11.372)" fill="#02b9ef"/>
      <path id="Path_2265" data-name="Path 2265" d="M140.219,221.879v19.529c-.048,8.479-4.477,12.861-12.956,12.908-3.715,0-7.478.048-11.194,0-7.526-.1-13.051-5.1-13.432-12.623a153.062,153.062,0,0,1-.048-16.2c.381-7.717,6.288-13.147,14.1-13.242,2.048-.048,4.144,0,6.192,0,2-.048,2.763-1.191,2.715-3.1,0-1.905-.857-2.763-2.763-2.667q-3.215.071-6.43,0c-5.24-.1-8.145-2.953-8.1-8.1,0-2.1-.953-4.906.429-6.145,1.191-1.048,3.906-.381,5.954-.381,5.335-.048,10.622,0,15.957,0,5.668,0,9.527,3.858,9.574,9.574C140.266,208.208,140.219,215.067,140.219,221.879Zm-14.576,10.813V230.31c0-4.859,0-4.859-4.859-4.668-2.429.1-3.763,1.334-3.811,3.858-.048,2-.048,3.954,0,5.954.048,3.43,1.572,4.335,6.526,4.477,3.668.1,1.81-2.477,2.143-3.906A25.957,25.957,0,0,0,125.643,232.691Z" transform="translate(-45.669 -12.503)" fill="#06306f"/>
      <path id="Path_2266" data-name="Path 2266" d="M229.3,216.907c0,7.288.1,14.623-.048,21.911-.1,5.621-1.429,10.717-6.859,13.718a15.309,15.309,0,0,1-7.05,1.905c-5.478.1-10.956,0-16.433.1-1.334,0-1.62-.476-1.572-1.667.1-2-.048-3.954.048-5.954a6.945,6.945,0,0,1,6.811-6.859c2.477-.1,4.906-.048,7.383,0,2,0,3.1-.81,3.1-2.953,0-2.191-1.048-2.953-3.048-3-3.334-.1-6.669.381-9.955-.572-5.668-1.667-9.812-6.383-9.955-12.242-.286-9.288-.1-18.577-.143-27.865,0-1.048.333-1.381,1.381-1.334,3.906.048,7.764.1,11.67,0,1.715-.048,1.477.905,1.477,1.953V215c0,3.048,1.429,4.668,4.1,4.763,3.144.1,4.525-1.191,4.525-4.382,0-7.05.048-14.147-.048-21.2,0-1.667.429-2.143,2.1-2.1,3.477.143,7,.191,10.479,0,1.905-.1,2.191.619,2.143,2.286C229.257,201.856,229.3,209.381,229.3,216.907Z" transform="translate(-92.43 -12.723)" fill="#06306f"/>
      <path id="Path_2267" data-name="Path 2267" d="M15.642,227.56V204.22c0-7.621,4.668-12.385,12.337-12.289,5,.048,10-.572,14.957.381a12.43,12.43,0,0,1,10.384,12.67c.048,6.907,0,13.813,0,20.72,0,8.669-5.1,13.956-13.766,14.195-2.62.1-5.24.048-7.859,0-1.191-.048-1.715.333-1.667,1.62.1,1.905.048,3.811,0,5.716a6.956,6.956,0,0,1-7.05,7.1c-2.382.048-5.382,1-6.907-.381-1.429-1.286-.381-4.335-.429-6.621C15.594,240.754,15.642,234.133,15.642,227.56Zm14.385-11.67v4.525c0,5.383,0,5.383,5.382,4.906,2.334-.191,3.43-1.334,3.477-3.668.048-2.667-.1-5.383.048-8.05.286-7.717-1.143-6.954-7.431-7-1.143,0-1.524.333-1.524,1.477C30.074,210.65,30.027,213.27,30.027,215.89Z" transform="translate(0 -12.563)" fill="#06306f"/>
      <path id="Path_2268" data-name="Path 2268" d="M289.339,215.128c0-6.327-.048-12.7.048-19.027,0-1.475-.333-2.093-1.953-2.045-2.143.1-5,.714-6.192-.333-1.477-1.38-.333-4.329-.524-6.612v-.476c0-2.236-.715-4.852.238-6.517s3.858-.618,5.906-1.142a17.258,17.258,0,0,0,9.574-6.612,10.9,10.9,0,0,1,6.621-4.281c1.477-.285,2.382-.1,2.286,1.808-.143,2.664,0,5.375-.048,8.087-.048,1.142.381,1.522,1.524,1.475,1.905-.048,3.811.048,5.716-.048,1.143-.048,1.524.381,1.477,1.522-.048,3.9-.048,7.754,0,11.654,0,1.094-.286,1.665-1.477,1.522a3.587,3.587,0,0,0-.715,0c-2.1.19-5-.951-6.1.476-1.048,1.332-.381,4.091-.381,6.231,0,12.939-.048,25.83.048,38.768,0,1.808-.476,2.378-2.286,2.236-1.715-.143-3.477,0-5.24-.048-5.144-.19-8.526-3.663-8.526-8.8Q289.339,224.047,289.339,215.128Z" transform="translate(-139.047 0)" fill="#02b9ef"/>
    </g>
  </g>
</svg>
