<svg xmlns="http://www.w3.org/2000/svg" width="72" height="74" viewBox="0 0 72 74">
  <path id="Union_2" data-name="Union 2" d="M63,69.5A4.5,4.5,0,1,1,67.5,74,4.5,4.5,0,0,1,63,69.5Zm-21,0A4.5,4.5,0,1,1,46.5,74,4.5,4.5,0,0,1,42,69.5Zm-21,0A4.5,4.5,0,1,1,25.5,74,4.5,4.5,0,0,1,21,69.5Zm-21,0A4.5,4.5,0,1,1,4.5,74,4.5,4.5,0,0,1,0,69.5Zm63-22A4.5,4.5,0,1,1,67.5,52,4.5,4.5,0,0,1,63,47.5Zm-21,0A4.5,4.5,0,1,1,46.5,52,4.5,4.5,0,0,1,42,47.5Zm-21,0A4.5,4.5,0,1,1,25.5,52,4.5,4.5,0,0,1,21,47.5Zm-21,0A4.5,4.5,0,1,1,4.5,52,4.5,4.5,0,0,1,0,47.5Zm63-21A4.5,4.5,0,1,1,67.5,31,4.5,4.5,0,0,1,63,26.5Zm-21,0A4.5,4.5,0,1,1,46.5,31,4.5,4.5,0,0,1,42,26.5Zm-21,0A4.5,4.5,0,1,1,25.5,31,4.5,4.5,0,0,1,21,26.5Zm-21,0A4.5,4.5,0,1,1,4.5,31,4.5,4.5,0,0,1,0,26.5Zm63-22A4.5,4.5,0,1,1,67.5,9,4.5,4.5,0,0,1,63,4.5Zm-21,0A4.5,4.5,0,1,1,46.5,9,4.5,4.5,0,0,1,42,4.5Zm-21,0A4.5,4.5,0,1,1,25.5,9,4.5,4.5,0,0,1,21,4.5ZM0,4.5A4.5,4.5,0,1,1,4.5,9,4.5,4.5,0,0,1,0,4.5Z" fill="#ffc592"/>
</svg>
